<?xml version="1.0" encoding="UTF-8" standalone="no"?>
<!-- Created with Inkscape (http://www.inkscape.org/) -->

<svg
   width="32"
   height="32"
   viewBox="0 0 8.4666665 8.4666666"
   version="1.1"
   id="svg1"
   inkscape:version="1.3.2 (091e20ef0f, 2023-11-25)"
   sodipodi:docname="icon_possess.svg"
   xml:space="preserve"
   xmlns:inkscape="http://www.inkscape.org/namespaces/inkscape"
   xmlns:sodipodi="http://sodipodi.sourceforge.net/DTD/sodipodi-0.dtd"
   xmlns="http://www.w3.org/2000/svg"
   xmlns:svg="http://www.w3.org/2000/svg"><sodipodi:namedview
     id="namedview1"
     pagecolor="#505050"
     bordercolor="#eeeeee"
     borderopacity="1"
     inkscape:showpageshadow="0"
     inkscape:pageopacity="0"
     inkscape:pagecheckerboard="0"
     inkscape:deskcolor="#505050"
     inkscape:document-units="px"
     inkscape:zoom="5.6568543"
     inkscape:cx="-14.495689"
     inkscape:cy="36.150834"
     inkscape:window-width="1920"
     inkscape:window-height="1095"
     inkscape:window-x="0"
     inkscape:window-y="0"
     inkscape:window-maximized="1"
     inkscape:current-layer="layer1"
     showgrid="true"><inkscape:grid
       id="grid1"
       units="px"
       originx="0"
       originy="0"
       spacingx="0.26458333"
       spacingy="0.26458333"
       empcolor="#0099e5"
       empopacity="0.30196078"
       color="#0099e5"
       opacity="0.14901961"
       empspacing="5"
       dotted="false"
       gridanglex="30"
       gridanglez="30"
       visible="true"
       enabled="false" /></sodipodi:namedview><defs
     id="defs1" /><g
     inkscape:label="Layer 1"
     inkscape:groupmode="layer"
     id="layer1"><circle
       style="fill:#ffffff;stroke-width:0.248047;fill-opacity:1"
       id="path1"
       cx="4.2333331"
       cy="4.2333331"
       r="3.9687498" /><ellipse
       style="fill:#0084ff;stroke-width:0.248047;fill-opacity:1"
       id="path2"
       cx="4.2333331"
       cy="4.2333331"
       rx="3.4726562"
       ry="3.472656" /><g
       id="g8"
       transform="matrix(0.52476856,-0.24134924,0.24134924,0.52476856,-8.3061887,4.8009738)"><path
         style="fill:#7bbfff;fill-opacity:1;stroke-width:0.264583"
         d="m 17.864973,5.162166 c 0,0 0.929777,1.1793754 1.108673,1.2668686 0.178898,0.08749 -0.07961,0.8343206 0.01155,1.3195926 0.09116,0.4852719 -0.527663,1.880746 -0.535189,2.1792219 -0.0075,0.2984759 0.456399,1.0753359 0.821832,0.3070459 0.365433,-0.7682916 1.24648,-3.364841 1.24648,-3.364841 l -1.864883,-2.6696382 -0.90877,0.3175999 z"
         id="path8" /><path
         style="fill:#95ccff;fill-opacity:1;stroke-width:0.264583"
         d="m 18.338115,6.7127846 c 0,0 0.963384,1.0911834 1.157606,1.135195 0.194222,0.044008 0.327044,0.6730573 0.527352,1.1243627 0.200307,0.4513052 -0.08105,1.9516837 -0.01974,2.2438917 0.06131,0.292208 0.691441,0.941572 0.870414,0.109838 0.178973,-0.831734 0.439339,-3.5612988 0.439339,-3.5612988 L 18.884298,5.5955005 18.072911,6.1135599 Z"
         id="path7"
         sodipodi:nodetypes="ccssscccc" /><path
         style="fill:#b9ddff;fill-opacity:1;stroke-width:0.264583"
         d="m 19.692999,7.3823277 c 0,0 0.854325,0.9243681 1.053441,0.9209121 0.175389,0.1068207 0.308605,0.7792251 0.610525,1.1699221 0.301919,0.390697 0.385571,1.9149351 0.514633,2.1841691 0.129061,0.269234 0.895584,0.750051 0.871555,-0.100381 -0.02403,-0.850433 -0.420485,-3.5635749 -0.420485,-3.5635749 l -2.875115,-1.5292024 -0.66485,0.6962105 z"
         id="path4"
         sodipodi:nodetypes="ccssscccc" /><path
         style="fill:#ffffff;stroke-width:0.264583"
         d="m 24.819737,11.275632 c 0,0 -0.486198,0.357163 -1.008388,-0.194237 -0.52219,-0.5514 -0.560185,-1.7924273 -1.9216,-2.9011775 -1.361416,-1.1087499 -3.042475,-1.5679294 -3.123994,1.0401153 -0.08152,2.6080452 -1.104818,1.9550512 -1.104818,1.9550512 0,0 -0.629247,-0.596192 -0.46472,-2.3569123 0.21298,-2.2792524 -1.678969,-0.1049447 -1.477252,-3.8817701 0.154352,-2.8899951 3.856192,-2.0171867 6.420119,0.9977453 2.563928,3.0149321 2.680653,5.3411851 2.680653,5.3411851 z"
         id="path3"
         sodipodi:nodetypes="cssscsssc" /></g></g></svg>
